<?xml version="1.0" standalone="no"?><!DOCTYPE svg PUBLIC "-//W3C//DTD SVG 1.1//EN" "http://www.w3.org/Graphics/SVG/1.1/DTD/svg11.dtd"><svg t="1771944810687" class="icon" viewBox="0 0 1024 1024" version="1.1" xmlns="http://www.w3.org/2000/svg" p-id="4962" xmlns:xlink="http://www.w3.org/1999/xlink" width="200" height="200"><path d="M760 992h-464C256 992 224 960 224 920v-768C224 112 256 80 296 80h464C800 80 832 112 832 152v768c0 40-32 72-72 72z m-464-880C273.6 112 256 129.6 256 152v768c0 22.4 17.6 40 40 40h464c22.4 0 40-17.6 40-40v-768C800 129.6 782.4 112 760 112h-464z" fill="" p-id="4963"></path><path d="M752 848H304c-9.6 0-16-6.4-16-16V224c0-9.6 6.4-16 16-16h448c9.6 0 16 6.4 16 16v608c0 9.6-6.4 16-16 16z m-432-32h416V240H320v576z" fill="" p-id="4964"></path></svg>